{"title":"John.Carter.2012.BRRip.XviD-RLF","uid":7283268,"size":1549245532,"categoryP":"video","categoryS":"movies","magnet":"?xt=urn:btih:fbb113ee4b4c507fc54827ce44556d6a40ffecc8&amp;dn=John.Carter.2012.BRRip.XviD-RLF&amp;tr=udp%3A%2F%2Ftracker.openbittorrent.com%3A80&amp;tr=udp%3A%2F%2Fopen.demonii.com%3A1337&amp;tr=udp%3A%2F%2Ftracker.coppersurfer.tk%3A6969&amp;tr=udp%3A%2F%2Fexodus.desync.com%3A6969","seeders":1,"leechers":0,"uploader":"rlf-rls","files":-1,"time":1337504050,"description":"John.Carter.2012.BRRip.XviD-RLF\n                                            \n\nGENERAL\n\n\nComplete name: rlf-carter.avi\nFormat: AVI\nFormat/Info: Audio Video Interleave\nFile size: 1.43 GiB\nDuration: 2h 11mn\nOverall bit rate: 1 556 Kbps \nLanguage: English\nSubs: Polish, English, \n      English for alien parts \n\nEncoder: Ralf\n\nVideo:\n\nFormat: MPEG-4 Visual\nFormat profile: Advanced Simple@L5\nFormat settings, BVOP: 2\nFormat settings, QPel: No\nFormat settings, GMC: No warppoints\nFormat settings, Matrix: H.263\nMuxing mode: Packed bitstream\nCodec ID: XVID\nDuration: 2h 11mn\nBit rate: 1 163 Kbps\nWidth: 688 pixels\nHeight: 288 pixels\nDisplay aspect ratio: 2.35:1\nFrame rate: 23.976 fps\nColor space: YUV\nChroma subsampling: 4:2:0\nBit depth: 8 bits\nScan type: Progressive\nBits/(Pixel*Frame): 0.245\nStream size: 1.07 GiB (75%)      \nStream size: Xvid 64\n\nAudio:\n\nFormat: AC-3\nFormat/Info: Audio Coding 3\nDuration: 2h 11mn\nBit rate mode: Constant\nBit rate: 384 Kbps\nChannel(s): 6 channels\nChannel positions: Front: L C R, Side: L R, LFE\nSampling rate: 48.0 KHz\nBit depth: 16 bits\nDelay relative to video: 22ms\nStream size: 362 MiB (25%)\nAlignment: Split accross interleaves\nInterleave, duration: 42 ms (1.00 video frame)\nInterleave, preload duration: 500 ms\n\nMOVIE INFO\n\nTransplanted to Mars, a Civil War vet discovers a lush planet \ninhabited by 12-foot tall barbarians. Finding himself a prisoner \nof these creatures, he escapes, only to encounter a princess who \nis in desperate need of a savior.\n &lt;a href=&quot;\nhttp://www.imdb.com/title/tt0401729/&quot; rel=&quot;nofollow&quot; target=&quot;_NEW&quot;&gt;\nhttp://www.imdb.com/title/tt0401729/&lt;/a&gt;                &lt;a href=&quot;\nhttp://www.filmweb.pl/film/John+Carter-2012-124382&quot; rel=&quot;nofollow&quot; target=&quot;_NEW&quot;&gt;\nhttp://www.filmweb.pl/film/John+Carter-2012-124382&lt;/a&gt;\n                       \nSOURCE\n\nSPARKS 720p.BluRay.x264 (THX)\n\nSCREENS\n &lt;a href=&quot;\nhttp://image.bayimg.com/gaocpaadl.jpg&quot; rel=&quot;nofollow&quot; target=&quot;_NEW&quot;&gt;\nhttp://image.bayimg.com/gaocpaadl.jpg&lt;/a&gt; &lt;a href=&quot;\nhttp://image.bayimg.com/haocbaadl.jpg&quot; rel=&quot;nofollow&quot; target=&quot;_NEW&quot;&gt;\nhttp://image.bayimg.com/haocbaadl.jpg&lt;/a&gt; &lt;a href=&quot;\nhttp://image.bayimg.com/haocdaadl.jpg&quot; rel=&quot;nofollow&quot; target=&quot;_NEW&quot;&gt;\nhttp://image.bayimg.com/haocdaadl.jpg&lt;/a&gt; &lt;a href=&quot;\nhttp://image.bayimg.com/haoceaadl.jpg&quot; rel=&quot;nofollow&quot; target=&quot;_NEW&quot;&gt;\nhttp://image.bayimg.com/haoceaadl.jpg&lt;/a&gt; &lt;a href=&quot;\nhttp://image.bayimg.com/haocgaadl.jpg&quot; rel=&quot;nofollow&quot; target=&quot;_NEW&quot;&gt;\nhttp://image.bayimg.com/haocgaadl.jpg&lt;/a&gt;","torrent":{"xt":"urn:btih:fbb113ee4b4c507fc54827ce44556d6a40ffecc8","amp;dn":"John.Carter.2012.BRRip.XviD-RLF","amp;tr":["udp%3A%2F%2Ftracker.openbittorrent.com%3A80","udp%3A%2F%2Fopen.demonii.com%3A1337","udp%3A%2F%2Ftracker.coppersurfer.tk%3A6969","udp%3A%2F%2Fexodus.desync.com%3A6969"],"infoHash":"fbb113ee4b4c507fc54827ce44556d6a40ffecc8","infoHashBuffer":{"type":"Buffer","data":[251,177,19,238,75,76,80,127,197,72,39,206,68,85,109,106,64,255,236,200]},"announce":[],"urlList":[]}}